<svg width="72" height="80" viewBox="0 0 72 80" fill="none" xmlns="http://www.w3.org/2000/svg">
<path d="M64.8 0H7.2C3.224 0 0 3.224 0 7.2V72.8C0 76.776 3.224 80 7.2 80H64.8C68.776 80 72 76.776 72 72.8V7.2C72 3.224 68.776 0 64.8 0Z" fill="url(#paint0_radial)"/>
<path d="M64.8 0H7.2C3.224 0 0 3.224 0 7.2V72.8C0 76.776 3.224 80 7.2 80H64.8C68.776 80 72 76.776 72 72.8V7.2C72 3.224 68.776 0 64.8 0Z" fill="url(#paint1_linear)"/>
<path d="M18 68L27 60L18 52V68Z" fill="white"/>
<path d="M50.517 35.575C48.905 33.944 45.945 32 41 32C35.577 32 29.994 33.411 26 34.711V12H18V46.692L23.651 44.132C23.742 44.091 32.866 40 41 40C45.062 40 45.961 42.243 46 44.11V68H54V44C54.005 43.488 53.958 39.055 50.517 35.575Z" fill="white"/>
<path d="M40 25H48C51.618 20.9 53.46 16.544 54 12H46C45.118 16.534 43.144 20.875 40 25Z" fill="white"/>
<defs>
<radialGradient id="paint0_radial" cx="0" cy="0" r="1" gradientUnits="userSpaceOnUse" gradientTransform="translate(36 40) scale(53.5023)">
<stop stop-color="#844DB8"/>
<stop offset="1" stop-color="#5B16A3"/>
</radialGradient>
<linearGradient id="paint1_linear" x1="0.499998" y1="75.5" x2="76.7647" y2="-0.764803" gradientUnits="userSpaceOnUse">
<stop stop-color="#7673C0" stop-opacity="0.5"/>
<stop offset="1" stop-color="#7673C0" stop-opacity="0"/>
</linearGradient>
</defs>
</svg>
